<svg xmlns="http://www.w3.org/2000/svg" fill="#ffffff" viewBox="0 0 89 88"><path d="m73 5.75 3.81-.02C80 6 80 6 82 8c-.02 2.6-.14 5.05-.37 7.63l-.18 2.14L81 23h-4l-2-7a2415 2415 0 0 0-36.7 25.4q-2.4 1.66-4.74 3.38l-2.4 1.7-2.13 1.54c-2.47 1.2-3.51.93-6.03-.02 0-4.26 1.6-4.36 5.13-6.56l3.35-2.15c.29-.2.29-.2 1.77-1.14 2.8-1.84 5.53-3.8 8.25-5.77q9.08-6.53 18.25-12.94l2.67-1.88 2.5-1.75 2.24-1.57C69 13 69 13 71 12l-6-1-1-3c2.88-2.88 5-2.27 9-2.25"/><path d="M65.44 30.87h13.62C81 31 81 31 82 32q.14 2.3.13 4.6v42.43C82 81 82 81 81 82c-3.14.25-6.29.19-9.44.19l-2.68.03-2.56.01-2.36.01C62 82 62 82 60 80c-.25-2.06-.25-2.06-.24-4.62l-.01-2.9.02-3.14v-3.21l.02-6.73.02-10.35.02-6.52v-3.15l.02-2.9.02-2.55c.25-3.72 2.34-3.06 5.57-3.06M65 36v41h13V36zM38.22 46.87h12.94C53 47 53 47 54 48q.13 3.66.1 7.32v2.21l-.05 11.79L54 81c-2.28 1.14-3.57 1.13-6.1 1.13h-7.5c-6.26 0-6.26 0-7.39-1.13q-.15-3.64-.13-7.28v-20.6c.02-6.25.02-6.25 5.35-6.25M38 52v25c11 0 11 0 12-1q.12-2.67.1-5.35l-.01-3.27-.03-3.44-.01-3.46L50 52zm-20.5 2.88 2.38-.02c5.87.01 5.87.01 8.12 1.14v25c-2.28 1.14-3.57 1.13-6.1 1.13h-7.5c-6.26 0-6.26 0-7.39-1.13q-.12-2.78-.1-5.57l.01-3.4.03-3.6.01-3.6L7 56c3.28-1.64 6.9-1.14 10.5-1.12M11 60l-.06 7.94-.03 2.28C10.9 75.9 10.9 75.9 12 77q2.75.14 5.5.13h3.03C23 77 23 77 24 76q.15-3.75.13-7.5v-2.13c0-5.24 0-5.24-1.13-6.37q-3.03-.1-6.06-.06l-3.35.02z"/></svg>